<svg xmlns="http://www.w3.org/2000/svg" fill="#000000" width="24.736" height="118.184" viewBox="0 0 24.736 118.184"><g transform="translate(136 -144)"><path d="M42.182,134.5c-.869,2.11-1.528,4.537-2.543,4.855A1.292,1.292,0,0,1,38.377,139c-.807-.717-1.269-2.433-1.269-4.222a14.925,14.925,0,0,1,.912-4.795l-2.865-1.166c-1.359,8.6.289,11.887,1.689,13.635a4.463,4.463,0,0,0,3.488,1.811c3.084-.009,4.82-3.111,5.929-6.331,1.09-3.135,1.964-4.374,2.966-4.434,1.513-.08,2.854,1.273,2.854,4.584a12.347,12.347,0,0,1-1.573,6.087l2.622,1.327.211-.674c1.546-4.94,1.561-9.909-.57-13.55-1.281-2.181-2.812-3.223-4.573-3.223C46.015,128.045,44.436,129,42.182,134.5Z" transform="translate(-170.648 116.692)" class="letters"></path> <path d="M54.2,124.532l-.007-4.9-7.145-.516s.006-.732-.036-1.5c-.434-8.768-4.3-10.589-6.229-10.589-4.972,0-5.614,5.347-5.614,10.967,0,.143-.006,5.143-.006,5.143Zm-16.684-8.1c0-6.118,7-6.428,7.179,1.755,0,.325-.017.678-.017.678l-7.147-.485S37.516,117.162,37.516,116.427Z" transform="translate(-170.648 116.692)" class="letters"></path> <path d="M54.2,104l-.012-4.888L35.168,97.718v4.871Z" transform="translate(-170.648 116.692)" class="letters"></path> <path d="M54.186,92.994l.012-4.913-7.152-.5c-.006-1.009-.082-1.979-.134-2.524.275-.27,1.286-1.255,1.286-1.255,2.27-2.047,6.035-5.445,6.035-10.5,0-.111,0-.227-.006-.348h0l-.074-2.388-2.114-.155-.06.668c-.257,3.018-2.576,5.31-5.036,7.736,0,0-.575.58-1.109,1.121-.708-1.744-2.121-4.322-4.938-4.412a4.415,4.415,0,0,0-3.511,1.288c-1.5,1.508-2.217,4.291-2.217,8.491V91.56ZM37.514,84.955c0-6.105,7-6.428,7.173,1.754.008.329-.013.5-.013.615-2.945-.219-5.789-.383-7.146-.485C37.523,86.721,37.514,85.689,37.514,84.955Z" transform="translate(-170.648 116.692)" class="letters"></path> <path d="M35.163,59.63c0,6.9,4.165,11.577,10.282,11.13,13.1-.95,8.613-17.8,7.669-20.282l-2.025.861S55.4,65.747,45.463,65.747l0-13.589a1.634,1.634,0,0,0-1.791-1.7C36.444,50.462,35.163,56.555,35.163,59.63Zm6.366-4.338c1.072,0,1.219.15,1.219,3.09l0,7.366a5.675,5.675,0,0,1-5.214-5.695C37.531,57.55,39.207,55.292,41.529,55.292Z" transform="translate(-170.648 116.692)" class="letters"></path> <path d="M36.27,45.442c1.234.621,4.152.306,4.93-1.255.574-1.158,3.642-8.911,3.642-8.911s3.969,10.3,4.221,10.977c.309.819,2.313,1.044,3,.631-.225-.642-7.681-19.576-7.681-19.576S36.511,44.977,36.27,45.442Z" transform="translate(-170.648 116.692)" class="arrow"></path> <g transform="translate(-174 18.692)"><path d="M59.384,142.624a1.8,1.8,0,0,1-.137.714,1.659,1.659,0,0,1-.373.548,1.718,1.718,0,0,1-1.194.481,1.774,1.774,0,0,1-.692-.133,1.643,1.643,0,0,1-.54-.366,1.679,1.679,0,0,1-.353-.552,1.825,1.825,0,0,1-.129-.692,1.79,1.79,0,0,1,.138-.712,1.637,1.637,0,0,1,.919-.9,1.72,1.72,0,0,1,.657-.127,1.676,1.676,0,0,1,1.567,1.029A1.79,1.79,0,0,1,59.384,142.624Zm-.372,0a1.593,1.593,0,0,0-.1-.582,1.365,1.365,0,0,0-.284-.455,1.286,1.286,0,0,0-.424-.3,1.31,1.31,0,0,0-.521-.1,1.346,1.346,0,0,0-.529.1,1.279,1.279,0,0,0-.425.3,1.383,1.383,0,0,0-.285.455,1.614,1.614,0,0,0-.1.582,1.644,1.644,0,0,0,.093.559,1.365,1.365,0,0,0,.268.457,1.267,1.267,0,0,0,.421.309,1.3,1.3,0,0,0,.559.114,1.29,1.29,0,0,0,.945-.4,1.371,1.371,0,0,0,.284-.454A1.586,1.586,0,0,0,59.012,142.624Zm-1.676,1h-.317v-1.928h.731a.883.883,0,0,1,.526.13.49.49,0,0,1,.177.424.473.473,0,0,1-.144.382.662.662,0,0,1-.359.144l.54.848h-.358l-.5-.825h-.3Zm.353-1.1c.059,0,.116,0,.17-.007a.358.358,0,0,0,.142-.038.285.285,0,0,0,.1-.091.307.307,0,0,0,.037-.166.223.223,0,0,0-.039-.139.279.279,0,0,0-.1-.08.476.476,0,0,0-.136-.035c-.049,0-.1-.007-.144-.007h-.381v.563Z" class="reg"></path></g> <g transform="translate(-170.648 116.692)"><path d="M59.384,142.624a1.8,1.8,0,0,1-.137.714,1.659,1.659,0,0,1-.373.548,1.718,1.718,0,0,1-1.194.481,1.774,1.774,0,0,1-.692-.133,1.643,1.643,0,0,1-.54-.366,1.679,1.679,0,0,1-.353-.552,1.825,1.825,0,0,1-.129-.692,1.79,1.79,0,0,1,.138-.712,1.637,1.637,0,0,1,.919-.9,1.72,1.72,0,0,1,.657-.127,1.676,1.676,0,0,1,1.567,1.029A1.79,1.79,0,0,1,59.384,142.624Zm-.372,0a1.593,1.593,0,0,0-.1-.582,1.365,1.365,0,0,0-.284-.455,1.286,1.286,0,0,0-.424-.3,1.31,1.31,0,0,0-.521-.1,1.346,1.346,0,0,0-.529.1,1.279,1.279,0,0,0-.425.3,1.383,1.383,0,0,0-.285.455,1.614,1.614,0,0,0-.1.582,1.644,1.644,0,0,0,.093.559,1.365,1.365,0,0,0,.268.457,1.267,1.267,0,0,0,.421.309,1.3,1.3,0,0,0,.559.114,1.29,1.29,0,0,0,.945-.4,1.371,1.371,0,0,0,.284-.454A1.586,1.586,0,0,0,59.012,142.624Zm-1.676,1h-.317v-1.928h.731a.883.883,0,0,1,.526.13.49.49,0,0,1,.177.424.473.473,0,0,1-.144.382.662.662,0,0,1-.359.144l.54.848h-.358l-.5-.825h-.3Zm.353-1.1c.059,0,.116,0,.17-.007a.358.358,0,0,0,.142-.038.285.285,0,0,0,.1-.091.307.307,0,0,0,.037-.166.223.223,0,0,0-.039-.139.279.279,0,0,0-.1-.08.476.476,0,0,0-.136-.035c-.049,0-.1-.007-.144-.007h-.381v.563Z" class="letters"></path></g></g></svg>